<svg width="24" height="25" viewBox="0 0 24 25" fill="none" xmlns="http://www.w3.org/2000/svg">
<path fill-rule="evenodd" clip-rule="evenodd" d="M10.9097 8.58515C9.8606 9.35367 9.28344 10.2683 9 10.8019C9.00252 10.8045 9.00588 10.8079 9.00861 10.8103C9.0103 10.8118 9.0124 10.8131 9.01408 10.8143C9.04307 10.8404 9.07039 10.8678 9.09875 10.8942C9.12165 10.9158 9.14224 10.9339 9.16662 10.9579C9.3742 11.159 9.56456 11.3777 9.73538 11.6124C9.75555 11.6404 9.77551 11.67 9.79568 11.6986C9.83224 11.7515 9.86817 11.8047 9.90284 11.8589C9.93435 11.9074 9.96524 11.9569 9.99633 12.0084C10.01 12.0313 10.0224 12.0546 10.0356 12.078C10.105 12.1984 10.1709 12.3262 10.2342 12.4616C10.2407 12.4761 10.2476 12.4909 10.2541 12.5054C10.3193 12.6488 10.3789 12.8003 10.4331 12.9603C10.4357 12.9682 10.439 12.9759 10.4416 12.9838C10.456 13.0275 10.4733 13.0675 10.4869 13.1127C10.4995 13.1546 10.5069 13.194 10.5182 13.2352C10.5185 13.237 10.5189 13.2389 10.5195 13.2406C10.5592 13.3874 10.5909 13.5292 10.6153 13.6662C10.6258 13.7222 10.6355 13.7785 10.6439 13.8354C10.6496 13.8758 10.6554 13.9154 10.6601 13.9546C10.6863 14.1781 10.6968 14.3846 10.6964 14.5639V16.553C12.4964 15.3697 13.8642 14.4601 15.4371 14.8266V14.209C15.4369 14.1217 15.4354 14.0303 15.4329 13.9362C15.4327 13.9295 15.4325 13.9225 15.4323 13.9156C15.4112 13.222 15.314 12.3565 15.0324 11.4006C14.5427 9.73772 13.7152 8.54321 13.104 7.81427C13.0704 7.77469 13.0374 7.73446 13.0032 7.69574C12.9826 7.67177 12.9618 7.64802 12.9418 7.62534C12.9341 7.61657 12.9259 7.60844 12.9183 7.6001C12.4094 7.74644 11.6722 8.02672 10.9097 8.58515Z" fill="#FFD304"/>
</svg>
