<svg width="82" height="41" viewBox="0 0 82 41" fill="none" xmlns="http://www.w3.org/2000/svg">
    <path d="M70.906 11.7033V21.7271H67.3117V14.6956H63.8509V21.7271H60.2566V11.7026H70.906V11.7033Z" fill="black"/>
    <path fill-rule="evenodd" clip-rule="evenodd" d="M52.8747 22.0857C56.0922 22.0857 58.4815 20.1211 58.4815 17.1428C58.4815 14.2601 56.7187 12.3885 53.7725 12.3885C52.4129 12.3885 51.2909 12.8651 50.4459 13.6875C50.6476 11.9877 52.091 10.7468 53.6803 10.7468C54.047 10.7468 56.8083 10.741 56.8083 10.741L58.3697 7.76538C58.3697 7.76538 54.9031 7.84396 53.2915 7.84396C49.6094 7.90786 47.1223 11.2408 47.1223 15.2889C47.1223 20.0049 49.548 22.0857 52.8747 22.0857ZM52.8942 15.0241C54.0889 15.0241 54.9171 15.8058 54.9171 17.1424C54.9171 18.3454 54.1812 19.3366 52.8942 19.3393C51.6632 19.3393 50.835 18.4209 50.835 17.1629C50.835 15.826 51.6632 15.0241 52.8942 15.0241V15.0241Z" fill="black"/>
    <path d="M44.1968 18.3714C44.1968 18.3714 43.348 18.8586 42.0802 18.9509C40.6228 18.9939 39.3242 18.0772 39.3242 16.4485C39.3242 14.8598 40.4701 13.9492 42.0435 13.9492C43.0083 13.9492 44.2846 14.6151 44.2846 14.6151C44.2846 14.6151 45.2186 12.9085 45.7023 12.055C44.8164 11.3864 43.6365 11.0198 42.2641 11.0198C38.8006 11.0198 36.1179 13.2686 36.1179 16.4284C36.1179 19.6284 38.6393 21.825 42.2641 21.7587C43.2773 21.7211 44.6751 21.3668 45.527 20.8219L44.1968 18.3714Z" fill="black"/>
    <path d="M0 8.92432L4.98587 17.7991V23.2125L0.00583264 32.0698L0 8.92432Z" fill="#5B57A2"/>
    <path d="M19.1438 14.5697L23.8157 11.7181L33.3772 11.7092L19.1438 20.3923V14.5697Z" fill="#D90751"/>
    <path d="M19.1174 8.87206L19.1438 20.622L14.1462 17.5641V0L19.1177 8.87206H19.1174Z" fill="#FAB718"/>
    <path d="M33.3771 11.7093L23.8154 11.7181L19.1174 8.87206L14.1462 0L33.3768 11.7093H33.3771Z" fill="#ED6F26"/>
    <path d="M19.1438 32.119V26.4183L14.1462 23.4185L14.149 40.9999L19.1438 32.119Z" fill="#63B22F"/>
    <path d="M23.804 29.2934L4.98553 17.7991L0 8.92432L33.3568 29.2818L23.8037 29.2934H23.804Z" fill="#1487C9"/>
    <path d="M14.1492 40.9999L19.1433 32.1189L23.8036 29.2934L33.3564 29.2817L14.1492 40.9999Z" fill="#017F36"/>
    <path d="M0.00561523 32.0699L14.1868 23.4189L9.41914 20.5059L4.98566 23.2125L0.00561523 32.0699Z" fill="#984995"/>
    <path d="M39.3252 28.4735C39.2154 28.6129 39.0709 28.7181 38.8977 28.7892C38.7199 28.8612 38.5297 28.8979 38.3377 28.8971C38.1468 28.8997 37.957 28.868 37.7775 28.8035C37.6161 28.7452 37.4687 28.6542 37.3445 28.5363C37.2218 28.4183 37.1254 28.2758 37.0618 28.1181C36.9928 27.9455 36.9584 27.761 36.9605 27.5752C36.9605 27.3907 36.9924 27.2199 37.0587 27.058C37.1221 26.8957 37.2144 26.7566 37.3301 26.6398C37.4457 26.5205 37.5843 26.4296 37.7401 26.3586C37.8989 26.2902 38.0722 26.2533 38.2626 26.2533C38.4678 26.2533 38.6582 26.279 38.8314 26.3299C39.0047 26.3811 39.1519 26.4665 39.273 26.5861L39.0623 26.9414C38.9605 26.8495 38.8405 26.7797 38.71 26.7364C38.5859 26.6966 38.4564 26.6766 38.3261 26.677C38.2108 26.677 38.101 26.6995 37.9943 26.7423C37.8891 26.7844 37.7931 26.8462 37.7112 26.9244C37.6276 27.0047 37.5617 27.1015 37.5177 27.2086C37.4687 27.3193 37.4457 27.4416 37.4457 27.578C37.4457 27.7174 37.4714 27.8424 37.5205 27.9504C37.5699 28.0614 37.6361 28.1554 37.7198 28.2346C37.8035 28.3146 37.9017 28.374 38.0142 28.414C38.1271 28.4567 38.2454 28.4765 38.3724 28.4765C38.5281 28.4765 38.6698 28.4451 38.791 28.3853C38.911 28.3276 39.0188 28.2476 39.1087 28.1496L39.3252 28.4735ZM39.9197 28.8373V26.3073H40.3761V28.1923L41.86 26.3073H42.3163V28.8377H41.86V26.9527L40.3761 28.8377H39.9197V28.8373ZM45.339 28.4735C45.2267 28.614 45.0794 28.7229 44.9118 28.7892C44.7339 28.8612 44.5436 28.8979 44.3515 28.8971C44.1607 28.8997 43.9711 28.868 43.7916 28.8035C43.6302 28.7452 43.4826 28.6542 43.3583 28.5363C43.2356 28.4183 43.1392 28.2758 43.0755 28.1181C43.0066 27.9455 42.9722 27.761 42.9743 27.5752C42.9743 27.3907 43.0062 27.2199 43.0725 27.058C43.1363 26.8957 43.2286 26.7566 43.3438 26.6398C43.4595 26.5205 43.5981 26.4296 43.7538 26.3586C43.9184 26.2864 44.0966 26.2505 44.2764 26.2533C44.4816 26.2533 44.672 26.279 44.8452 26.3299C45.0185 26.3811 45.1657 26.4665 45.2871 26.5861L45.0761 26.9414C44.9744 26.8494 44.8545 26.7796 44.7241 26.7364C44.6001 26.6967 44.4705 26.6766 44.3402 26.677C44.1109 26.6777 43.8906 26.7663 43.725 26.9244C43.6421 27.0053 43.5763 27.102 43.5315 27.2086C43.4825 27.3193 43.4595 27.4416 43.4595 27.578C43.4595 27.7174 43.4855 27.8424 43.5346 27.9504C43.5837 28.0614 43.6499 28.1554 43.7336 28.2346C43.8173 28.3146 43.9158 28.374 44.0283 28.414C44.1409 28.4537 44.2592 28.4765 44.3862 28.4765C44.5423 28.4765 44.6809 28.4451 44.8047 28.3853C44.9248 28.3276 45.0326 28.2476 45.1225 28.1496L45.339 28.4735ZM45.5729 26.3073H47.9142V26.7566H46.9731V28.8373H46.5168V26.7566H45.5757V26.3073H45.5729Z" fill="black"/>
    <path fill-rule="evenodd" clip-rule="evenodd" d="M50.0453 28.812C50.2186 28.758 50.3658 28.6753 50.4927 28.5619L50.3541 28.2093C50.2704 28.2834 50.1579 28.3459 50.0224 28.3972C49.8865 28.4484 49.7335 28.4737 49.566 28.4737C49.3149 28.4737 49.107 28.4085 48.9423 28.2749C48.7779 28.1409 48.6884 27.9537 48.6682 27.7145H50.643C50.6633 27.6264 50.6718 27.527 50.6718 27.4105C50.6718 27.2369 50.6399 27.0808 50.5765 26.9386C50.5174 26.8006 50.431 26.6758 50.3226 26.5717C50.2126 26.4685 50.083 26.3884 49.9414 26.3359C49.7932 26.2787 49.6355 26.2497 49.4765 26.2505C49.2627 26.2505 49.0751 26.2874 48.9107 26.3557C48.7553 26.4208 48.6148 26.5166 48.4976 26.6373C48.3839 26.7573 48.2965 26.8996 48.241 27.0551C48.18 27.2208 48.1497 27.396 48.1514 27.5724C48.1514 27.7716 48.1861 27.9534 48.2496 28.1157C48.3113 28.2729 48.4058 28.4153 48.5268 28.5335C48.6452 28.6497 48.7893 28.7382 48.9598 28.8007C49.1423 28.8652 49.335 28.8969 49.5286 28.8943C49.7041 28.8932 49.8783 28.8656 50.0453 28.8123V28.812ZM48.8905 26.8645C49.0318 26.7367 49.2195 26.6742 49.4562 26.6742C49.6786 26.6742 49.8577 26.734 49.9877 26.8535C50.1177 26.9728 50.1867 27.1378 50.1984 27.3479H48.6393C48.6614 27.1619 48.7507 26.9902 48.8905 26.8648V26.8645Z" fill="black"/>
    <path d="M51.2925 26.3071H51.7083L52.6957 27.561L53.631 26.3071H54.0352V28.8375H53.5792V26.9925L52.6899 28.1665H52.6724L51.7488 26.9922V28.8372H51.2925V26.3071Z" fill="black"/>
    <path fill-rule="evenodd" clip-rule="evenodd" d="M55.2765 26.3158C55.138 26.3519 55.0057 26.4083 54.884 26.4833L55.0051 26.842C55.109 26.7908 55.213 26.7481 55.317 26.7112C55.4209 26.6739 55.5537 26.6568 55.7125 26.6568C55.8395 26.6568 55.9407 26.677 56.0186 26.7166C56.0965 26.7535 56.1541 26.8106 56.1946 26.8789C56.2351 26.9472 56.2612 27.0323 56.2756 27.1317C56.29 27.2312 56.2958 27.3391 56.2958 27.456C56.2024 27.3912 56.096 27.3475 55.9839 27.3279C55.8755 27.3064 55.7654 27.295 55.6549 27.2937C55.519 27.2937 55.3921 27.3139 55.2706 27.3477C55.1495 27.3818 55.0456 27.4331 54.9618 27.5014C54.8764 27.5696 54.8073 27.656 54.7598 27.7543C54.7089 27.8618 54.6832 27.9794 54.6846 28.0983C54.6846 28.3457 54.757 28.5391 54.9011 28.6757C55.0456 28.8121 55.236 28.8801 55.4727 28.8801C55.6865 28.8801 55.857 28.8432 55.9867 28.7694C56.1167 28.6952 56.2207 28.6101 56.2958 28.5134V28.8404H56.723V27.2882C56.723 26.9582 56.6509 26.7026 56.5037 26.5232C56.3593 26.3442 56.1023 26.2533 55.7386 26.2533C55.5767 26.2533 55.4237 26.2759 55.2765 26.3158V26.3158ZM56.0392 28.3658C55.9352 28.4396 55.7993 28.4735 55.6319 28.4735C55.4847 28.4735 55.3691 28.4366 55.2885 28.3655C55.2075 28.2917 55.167 28.195 55.167 28.0754C55.167 28.0047 55.1814 27.9449 55.2133 27.8909C55.2452 27.8369 55.2885 27.7942 55.3375 27.7601C55.3912 27.7243 55.4508 27.6983 55.5135 27.6832C55.5801 27.6661 55.6463 27.6576 55.7156 27.6576C55.941 27.6576 56.1342 27.7116 56.2931 27.8253V28.1465C56.2182 28.23 56.1329 28.3036 56.0392 28.3655V28.3658ZM60.7509 25.4173C60.8432 25.3749 60.9297 25.3038 61.0106 25.1986L60.7622 24.8433C60.6988 24.9287 60.6267 24.9881 60.5457 25.0196C60.4599 25.053 60.371 25.0777 60.2802 25.0934L60.1937 25.1087C60.1186 25.1217 60.038 25.1361 59.9512 25.1504C59.812 25.1761 59.6763 25.218 59.547 25.2755C59.3418 25.3636 59.1775 25.4829 59.0533 25.6335C58.9291 25.7842 58.831 25.9547 58.7644 26.1426C58.697 26.333 58.6515 26.5304 58.6289 26.731C58.6055 26.936 58.5942 27.1317 58.5942 27.3193C58.5942 27.5612 58.6258 27.7799 58.6893 27.976C58.7531 28.1725 58.8423 28.3371 58.9606 28.4707C59.079 28.6074 59.2207 28.7099 59.3881 28.7837C59.5556 28.8575 59.7432 28.8944 59.9539 28.8944C60.1474 28.8944 60.3265 28.8575 60.4881 28.7892C60.6439 28.7235 60.7852 28.628 60.9039 28.508C61.0192 28.3911 61.1119 28.2517 61.1753 28.0956C61.2416 27.9391 61.2735 27.7713 61.2735 27.595C61.2735 27.4047 61.2446 27.2315 61.1897 27.0778C61.1392 26.9312 61.0586 26.7967 60.953 26.6828C60.8472 26.5708 60.718 26.4833 60.5746 26.4265C60.4165 26.3646 60.2479 26.3337 60.0781 26.3357C59.9683 26.3357 59.8616 26.35 59.7577 26.3784C59.6565 26.4068 59.5595 26.4479 59.4688 26.5007C59.3808 26.5509 59.3002 26.613 59.2293 26.6852C59.16 26.7566 59.1023 26.8362 59.0619 26.9271H59.0502C59.0591 26.8106 59.0735 26.6913 59.0993 26.569C59.1253 26.4467 59.1627 26.3299 59.2121 26.2192C59.2612 26.1085 59.3247 26.0087 59.4026 25.9178C59.4861 25.8261 59.5885 25.7533 59.7028 25.7046C59.8285 25.645 59.9615 25.602 60.0984 25.5768L60.1889 25.5604C60.2792 25.544 60.3653 25.5283 60.4476 25.5112C60.5574 25.4887 60.6583 25.46 60.7509 25.4176V25.4173ZM59.1456 27.8482C59.1009 27.7047 59.0795 27.555 59.0821 27.4047C59.1014 27.3185 59.1367 27.2366 59.1861 27.1632C59.2351 27.0863 59.2986 27.0183 59.3737 26.9582C59.5433 26.8259 59.7529 26.7548 59.9683 26.7566C60.237 26.7566 60.439 26.8389 60.5804 27.0012C60.7221 27.1659 60.7914 27.3706 60.7914 27.6179C60.7914 27.7403 60.7681 27.8513 60.7279 27.9535C60.6889 28.0542 60.63 28.1462 60.5546 28.2238C60.4792 28.3015 60.3889 28.3632 60.2891 28.4055C60.1852 28.4509 60.0723 28.4738 59.9453 28.4738C59.8184 28.4738 59.7028 28.4482 59.5961 28.3969C59.49 28.3467 59.3963 28.2739 59.3216 28.1837C59.2433 28.0832 59.1837 27.9696 59.1456 27.8482V27.8482ZM64.7727 26.3073H64.3164V28.8377H64.7727V26.3073ZM61.9315 26.3073H62.3878V27.0665H62.8095C63.0085 27.0665 63.1701 27.0921 63.3001 27.1403C63.4302 27.1888 63.5341 27.2541 63.612 27.3337C63.6899 27.4133 63.7448 27.5072 63.7767 27.6121C63.8083 27.7174 63.8258 27.8253 63.8258 27.9391C63.8258 28.0529 63.8083 28.1612 63.7709 28.2692C63.7362 28.3771 63.6755 28.4707 63.5945 28.5562C63.5139 28.6416 63.4041 28.7099 63.2655 28.7612C63.1269 28.8121 62.9594 28.8404 62.7574 28.8404H61.9288V26.3073H61.9315ZM62.3878 27.4898V28.4168H62.72C62.9481 28.4168 63.1097 28.3771 63.202 28.2972C63.2946 28.2176 63.3406 28.1041 63.3406 27.9535C63.3406 27.7997 63.2916 27.6835 63.1993 27.6036C63.1039 27.524 62.945 27.484 62.7258 27.484H62.3878V27.4898Z" fill="black"/>
    <path d="M67.7898 28.4735C67.68 28.6129 67.5355 28.7181 67.3623 28.7892C67.1845 28.8612 66.9943 28.8979 66.8023 28.8971C66.6114 28.8997 66.4216 28.868 66.242 28.8035C66.0807 28.7453 65.9333 28.6543 65.8091 28.5363C65.6864 28.4182 65.5899 28.2757 65.526 28.1181C65.4573 27.9454 65.4231 27.761 65.4251 27.5752C65.4251 27.3907 65.4567 27.2199 65.5233 27.058C65.5867 26.8957 65.679 26.7566 65.7947 26.6398C65.9103 26.5205 66.0485 26.4296 66.2046 26.3586C66.3692 26.2864 66.5474 26.2505 66.7272 26.2533C66.932 26.2533 67.1228 26.279 67.296 26.3299C67.4693 26.3811 67.6165 26.4665 67.7376 26.5861L67.5269 26.9414C67.4251 26.8495 67.3051 26.7797 67.1746 26.7364C67.0505 26.6967 66.921 26.6766 66.7907 26.677C66.6754 26.677 66.5656 26.6995 66.4585 26.7423C66.3535 26.7844 66.2575 26.8463 66.1758 26.9244C66.0928 27.0052 66.027 27.1019 65.9823 27.2086C65.9333 27.3193 65.9103 27.4416 65.9103 27.578C65.9103 27.7174 65.936 27.8424 65.9851 27.9504C66.0341 28.0614 66.1007 28.1554 66.1844 28.2347C66.2681 28.3146 66.3663 28.3741 66.4788 28.414C66.5917 28.4537 66.71 28.4766 66.837 28.4766C66.9927 28.4766 67.1313 28.4451 67.2555 28.3853C67.3756 28.3276 67.4834 28.2476 67.5733 28.1496L67.7898 28.4735ZM68.0234 26.3073H70.365V26.7566H69.4236V28.8374H68.9676V26.7566H68.0265V26.3073H68.0234Z" fill="black"/>
    <path fill-rule="evenodd" clip-rule="evenodd" d="M71.3179 26.3075H70.8616V29.9633H71.3179V28.721C71.4102 28.7808 71.52 28.8235 71.6469 28.8519C71.7739 28.8802 71.9066 28.8942 72.0425 28.8942C72.2446 28.8942 72.4264 28.8573 72.5911 28.7893C72.7491 28.7221 72.8922 28.6246 73.0124 28.5024C73.1308 28.3797 73.2204 28.2376 73.2838 28.0698C73.3473 27.9024 73.3792 27.723 73.3792 27.5327C73.3792 27.3448 73.3504 27.1716 73.2955 27.0151C73.2438 26.8665 73.1634 26.7294 73.0588 26.6116C72.9561 26.4967 72.8287 26.4063 72.6862 26.3471C72.5303 26.2804 72.362 26.2475 72.1924 26.2504C72.0137 26.2504 71.8463 26.2846 71.6874 26.3529C71.5286 26.4213 71.4044 26.5033 71.3179 26.6058V26.3075ZM71.6356 26.7766C71.7656 26.7083 71.907 26.6741 72.06 26.6741C72.1928 26.6741 72.3112 26.6939 72.4182 26.7366C72.5222 26.7793 72.6086 26.8391 72.681 26.9187C72.7531 26.9983 72.808 27.0896 72.8426 27.1972C72.88 27.3052 72.8975 27.422 72.8975 27.5498C72.8975 27.6865 72.8742 27.8084 72.834 27.9222C72.7962 28.0301 72.7361 28.1289 72.6577 28.2123C72.5789 28.2947 72.4835 28.3595 72.3777 28.4026C72.2598 28.4518 72.1329 28.476 72.0051 28.4737C71.8813 28.4737 71.7656 28.4596 71.6558 28.4313C71.5356 28.3987 71.4216 28.3468 71.3182 28.2775V27.0236C71.3989 26.9273 71.5059 26.8449 71.6356 26.7766V26.7766ZM76.8784 26.3071H76.4221V28.8375H76.8784V26.3071ZM74.0345 26.3071H74.4908V27.0663H74.9122C75.1115 27.0663 75.2731 27.092 75.4031 27.1401C75.5332 27.1886 75.6371 27.2539 75.715 27.3335C75.7929 27.4131 75.8478 27.5071 75.8793 27.612C75.9113 27.7172 75.9284 27.8252 75.9284 27.9389C75.9284 28.0527 75.9113 28.161 75.8739 28.269C75.8392 28.377 75.7785 28.4706 75.6975 28.556C75.6169 28.6414 75.5071 28.7097 75.3685 28.761C75.2299 28.8119 75.0624 28.8403 74.8604 28.8403H74.0318V26.3071H74.0345ZM74.4939 27.4897V28.4166H74.826C75.0539 28.4166 75.2158 28.377 75.3081 28.297C75.4004 28.2174 75.4467 28.104 75.4467 27.9533C75.4467 27.7995 75.3976 27.6834 75.3054 27.6034C75.21 27.5238 75.0511 27.4838 74.8319 27.4838H74.4939V27.4897Z" fill="black"/>
    <path d="M79.0671 27.5269L80.0428 28.8375H79.4829L78.7291 27.8139L77.964 28.8375H77.4329L78.4028 27.5494L77.4905 26.3071H78.0508L78.7466 27.2624L79.4537 26.3071H79.9852L79.0671 27.5269ZM38.9876 31.9648H37.5874V34.0742H37.1311V31.5442H39.4436V34.0742H38.9876V31.9648ZM42.0333 31.9932H41.1326L41.1035 32.4196C41.0719 32.7807 41.0287 33.0708 40.9679 33.2922C40.9072 33.5143 40.8321 33.6847 40.7456 33.804C40.6592 33.9236 40.5579 34.0059 40.4423 34.0459C40.3231 34.089 40.1969 34.1101 40.0701 34.1084L40.0354 33.6704C40.0845 33.6731 40.1421 33.6619 40.2056 33.6335C40.2694 33.6051 40.3329 33.5426 40.3933 33.449C40.454 33.352 40.5089 33.2156 40.5579 33.0393C40.607 32.8603 40.6389 32.6273 40.6561 32.3341L40.7024 31.5466H42.4896V34.077H42.0333V31.9928V31.9932Z" fill="black"/>
    <path fill-rule="evenodd" clip-rule="evenodd" d="M43.7196 31.5501C43.5721 31.5897 43.4393 31.6464 43.3267 31.7175L43.4482 32.0759C43.5522 32.0246 43.6561 31.9819 43.7597 31.945C43.8637 31.9081 43.9968 31.8911 44.1553 31.8911C44.2826 31.8911 44.3835 31.9109 44.4614 31.9505C44.5396 31.9878 44.5972 32.0445 44.6377 32.1128C44.6779 32.1811 44.7039 32.2665 44.7183 32.3656C44.7328 32.4654 44.7386 32.5734 44.7386 32.6899C44.6452 32.6252 44.5388 32.5816 44.4267 32.5621C44.3183 32.5406 44.2082 32.5292 44.0977 32.5279C43.9622 32.5279 43.8349 32.5477 43.7138 32.5819C43.5923 32.6161 43.4883 32.6673 43.4046 32.7357C43.3192 32.8039 43.2501 32.8903 43.2025 32.9885C43.1518 33.0961 43.1262 33.2137 43.1277 33.3326C43.1277 33.5796 43.1998 33.7733 43.3442 33.9096C43.4883 34.0459 43.6791 34.1143 43.9158 34.1143C44.1296 34.1143 44.2998 34.0774 44.4298 34.0032C44.5595 33.9294 44.6635 33.844 44.7386 33.7473V34.0743H45.1661V32.5221C45.1661 32.1924 45.0937 31.9365 44.9465 31.7575C44.8021 31.5781 44.5451 31.4875 44.1814 31.4875C44.0254 31.4877 43.8701 31.5086 43.7196 31.5497V31.5501ZM44.4847 33.5994C44.3811 33.6735 44.2452 33.7077 44.0778 33.7077C43.9275 33.7077 43.815 33.6708 43.7343 33.5994C43.6534 33.5256 43.6129 33.4289 43.6129 33.3097C43.6129 33.2386 43.6273 33.1788 43.6592 33.1248C43.6908 33.0708 43.7343 33.0281 43.7834 32.994C43.8325 32.9598 43.8929 32.9342 43.9594 32.9171C44.0254 32.9001 44.0933 32.8916 44.1615 32.8918C44.3866 32.8918 44.5801 32.9458 44.7389 33.0592V33.3804C44.664 33.4639 44.5785 33.5375 44.4847 33.5994V33.5994Z" fill="black"/>
    <path d="M45.613 31.5442H47.9547V31.9931H47.0132V34.0742H46.5572V31.9935H45.6161V31.5442H45.613Z" fill="black"/>
    <path fill-rule="evenodd" clip-rule="evenodd" d="M50.0857 34.0487C50.259 33.9947 50.4062 33.912 50.5331 33.7986L50.3945 33.446C50.3108 33.5201 50.1982 33.5827 50.0624 33.6339C49.9268 33.6852 49.7738 33.7105 49.6064 33.7105C49.3553 33.7105 49.1473 33.6452 48.9826 33.5116C48.818 33.378 48.7288 33.1904 48.7085 32.9513H50.6834C50.7033 32.8635 50.7122 32.7637 50.7122 32.6472C50.7122 32.474 50.6803 32.3175 50.6168 32.1753C50.5577 32.0374 50.4712 31.9127 50.3626 31.8087C50.2528 31.7054 50.1233 31.6251 49.9817 31.5726C49.8335 31.5154 49.6758 31.4864 49.5169 31.4872C49.3031 31.4872 49.1154 31.5241 48.9511 31.5925C48.7956 31.6574 48.6551 31.7532 48.538 31.874C48.4242 31.9941 48.3367 32.1364 48.281 32.2919C48.2202 32.4575 48.1898 32.6327 48.1915 32.8091C48.1915 33.0083 48.2261 33.1901 48.2896 33.3524C48.3534 33.5143 48.4485 33.6537 48.5668 33.7702C48.6852 33.8867 48.8296 33.9749 49.0001 34.0374C49.1826 34.102 49.3751 34.1338 49.5687 34.1314C49.7392 34.1314 49.9124 34.1027 50.0857 34.0487V34.0487ZM48.9281 32.0985C49.0695 31.9707 49.2571 31.9082 49.4939 31.9082C49.7193 31.9082 49.8953 31.9707 50.0253 32.0872C50.155 32.2068 50.2243 32.3715 50.236 32.5819H48.677C48.699 32.3958 48.7882 32.2239 48.9281 32.0985V32.0985ZM50.9345 31.5443H51.512L52.3923 32.764L51.4512 34.0743H50.8913L51.8784 32.7637L50.9345 31.5439V31.5443ZM52.5049 31.5443H52.9612V34.0743H52.5049V31.5443ZM54.5923 34.0743L53.5877 32.7637L54.5261 31.5439H53.9599L53.0737 32.7637L54.0265 34.0743H54.5923ZM56.6769 34.0487C56.8502 33.9947 56.9974 33.912 57.1243 33.7986L56.9857 33.446C56.902 33.5201 56.7895 33.5827 56.6539 33.6339C56.5181 33.6852 56.365 33.7105 56.1976 33.7105C55.9465 33.7105 55.7386 33.6452 55.5739 33.5116C55.4095 33.378 55.32 33.1904 55.2997 32.9513H57.2746C57.2948 32.8635 57.3034 32.7637 57.3034 32.6472C57.3034 32.474 57.2718 32.3175 57.208 32.1753C57.1489 32.0374 57.0626 31.9128 56.9541 31.8087C56.8443 31.7054 56.7146 31.6251 56.573 31.5726C56.4248 31.5154 56.267 31.4864 56.1081 31.4872C55.8947 31.4872 55.707 31.5241 55.5423 31.5925C55.387 31.6575 55.2466 31.7533 55.1296 31.874C55.0156 31.9939 54.928 32.1362 54.8726 32.2919C54.8116 32.4575 54.7812 32.6327 54.783 32.8091C54.783 33.0083 54.8177 33.1901 54.8812 33.3524C54.9446 33.5143 55.04 33.6537 55.1584 33.7702C55.2767 33.8867 55.4208 33.9749 55.5914 34.0374C55.7739 34.102 55.9665 34.1338 56.1602 34.1314C56.3357 34.1301 56.5099 34.1022 56.6769 34.0487V34.0487ZM55.5193 32.0985C55.661 31.9707 55.8487 31.9082 56.0854 31.9082C56.3077 31.9082 56.4865 31.9707 56.6165 32.0872C56.7466 32.2068 56.8159 32.3715 56.8272 32.5819H55.2682C55.2902 32.3958 55.3794 32.2239 55.5193 32.0985V32.0985ZM59.1544 30.6942C58.8858 30.6942 58.7386 30.5463 58.7156 30.2507H58.2854C58.2854 30.3642 58.3056 30.4667 58.343 30.5634C58.3807 30.66 58.4356 30.7424 58.5077 30.8107C58.5797 30.8791 58.6724 30.933 58.7791 30.9754C58.8858 31.0181 59.01 31.0379 59.1513 31.0379C59.2814 31.0379 59.397 31.0181 59.5009 30.9754C59.6049 30.9358 59.6914 30.8791 59.7665 30.8107C59.8386 30.7424 59.8965 30.66 59.9367 30.5634C59.9772 30.4667 59.9974 30.3642 59.9974 30.2507H59.5703C59.55 30.5463 59.4083 30.6942 59.1544 30.6942V30.6942ZM57.9213 31.5439V34.0743H58.3776L59.8615 32.1894V34.0743H60.3179V31.5439H59.8615L58.3776 33.4289V31.5439H57.9213Z" fill="black"/>
</svg>
