<svg width="24" height="24" viewBox="0 0 24 24" fill="none" xmlns="http://www.w3.org/2000/svg">
<path fill-rule="evenodd" clip-rule="evenodd" d="M2 6C2 5.45 2.45 5 3 5H21C21.55 5 22 5.45 22 6C22 6.55 21.55 7 21 7H3C2.45 7 2 6.55 2 6ZM2 11.73C2 11.18 2.45 10.73 3 10.73H21C21.55 10.73 22 11.18 22 11.73C22 12.28 21.55 12.73 21 12.73H3C2.45 12.73 2 12.28 2 11.73ZM3 16.46C2.45 16.46 2 16.91 2 17.46C2 18.01 2.45 18.46 3 18.46H21C21.55 18.46 22 18.01 22 17.46C22 16.91 21.55 16.46 21 16.46H3Z" fill="white"/>
</svg>
