<svg width="24" height="24" viewBox="0 0 24 24" fill="none" xmlns="http://www.w3.org/2000/svg">
<path fill-rule="evenodd" clip-rule="evenodd" d="M5.2925 18.0225C4.9025 18.4125 4.9025 19.0425 5.2925 19.4325C5.6825 19.8225 6.3125 19.8225 6.7025 19.4325L12.3625 13.7725L18.0225 19.4325C18.4125 19.8225 19.0425 19.8225 19.4325 19.4325C19.8225 19.0425 19.8225 18.4125 19.4325 18.0225L13.7725 12.3625L19.4425 6.7125C19.8325 6.3225 19.8325 5.6925 19.4425 5.3025C19.0525 4.9125 18.4225 4.9125 18.0325 5.3025L12.3625 10.9525L6.7125 5.2925C6.3225 4.9025 5.6825 4.9025 5.2925 5.2925C4.9025 5.6825 4.9025 6.3225 5.2925 6.7125L10.9525 12.3625L5.2925 18.0225Z" fill="white"/>
</svg>
