<svg width="296" height="109" viewBox="0 0 296 109" fill="none" xmlns="http://www.w3.org/2000/svg">
	<path d="M196.6 23.4V73.9C196.6 74.7 196 75.3 195.2 75.3H184.9C184.1 75.3 183.5 74.7 183.5 73.9V23.4C183.5 22.6 184.1 22 184.9 22H195.2C196 22.1 196.6 22.7 196.6 23.4ZM277 22.1H265.5C264.9 22.1 264.4 22.5 264.2 23.1L255.1 53L245.1 23.1C244.9 22.5 244.4 22.2 243.8 22.2H235.7C235.1 22.2 234.6 22.6 234.4 23.1L224.4 53L215.3 23.1C215.1 22.5 214.6 22.1 214 22.1H202.5C202.1 22.1 201.6 22.3 201.4 22.7C201.1 23.1 201.1 23.5 201.2 23.9L218.2 74.5C218.4 75.1 218.9 75.4 219.5 75.4H228.7C229.3 75.4 229.8 75 230 74.5L239.9 45L249.8 74.5C250 75.1 250.5 75.4 251.1 75.4H260.3C260.9 75.4 261.4 75 261.6 74.5L278.6 23.9C278.7 23.5 278.7 23 278.4 22.7C277.9 22.3 277.5 22.1 277 22.1ZM294.4 22.1H284.1C283.3 22.1 282.7 22.7 282.7 23.5V74C282.7 74.8 283.3 75.4 284.1 75.4H294.4C295.2 75.4 295.8 74.8 295.8 74V23.5C295.8 22.7 295.1 22.1 294.4 22.1ZM177.6 73.6C178.2 74.3 177.7 75.3 176.8 75.3H164.2C163.7 75.3 163.2 75.1 162.9 74.7L160.8 72.1C156.4 74.9 151.2 76.6 145.7 76.6C130.3 76.6 117.8 64.1 117.8 48.7C117.8 33.3 130.3 20.8 145.7 20.8C161.1 20.8 173.6 33.3 173.6 48.7C173.6 54.2 172 59.4 169.2 63.8L177.6 73.6ZM152.5 62.4L147 55.7C146.4 55 146.9 53.9 147.8 53.9H159.4C160 52.3 160.3 50.5 160.3 48.7C160.3 40.4 154.1 33.2 145.6 33.2C137.1 33.2 130.9 40.4 130.9 48.7C130.9 57 137.1 64.1 145.6 64.1C148.1 64.2 150.4 63.5 152.5 62.4ZM85.9001 73.4C86.2001 75.5 85.5001 76.4 84.9001 76.4C84.2001 76.4 83.3001 75.5 82.2001 73.9C81.1001 72.2 80.7001 70.3 81.3001 69.4C81.6001 68.8 82.4001 68.5 83.3001 68.8C85.0001 69.4 85.7001 72.1 85.9001 73.4ZM76.0001 77.9C78.1001 79.7 78.8001 81.9 77.7001 83.4C77.1001 84.2 76.1001 84.7 74.8001 84.7C73.6001 84.7 72.4001 84.3 71.5001 83.5C69.6001 81.8 69.0001 79 70.3001 77.5C70.8001 76.9 71.6001 76.6 72.6001 76.6C73.7001 76.6 74.9001 77.1 76.0001 77.9ZM72.4001 95.4C81.6001 95.4 91.6001 98.6 102.7 108.4C103.8 109.4 105.3 108.2 104.3 106.9C93.4001 93.2 83.4001 90.6 73.4001 88.4C61.1001 85.7 54.8001 78.8 50.4001 71.2C49.5001 69.7 49.1001 70 49.1001 71.9C49.0001 74.3 49.2001 77.4 49.7001 80.5C49.2001 80.5 48.7001 80.5 48.2001 80.5C30.7001 80.5 16.4001 66.3 16.4001 48.7C16.4001 31.2 30.6001 16.9 48.2001 16.9C65.8001 16.9 80.0001 31.1 80.0001 48.7C80.0001 49.9 79.9001 51.2 79.8001 52.4C77.5001 52 72.9001 51.9 69.7001 52.2C68.5001 52.3 68.7001 52.9 69.6001 53C80.1001 54.9 87.3001 61.4 89.0001 73.2C89.0001 73.5 89.4001 73.6 89.5001 73.3C93.8001 66.1 96.3001 57.7 96.3001 48.6C96.3001 22.1 74.8001 0.5 48.2001 0.5C21.6001 0.5 0.100098 22 0.100098 48.6C0.100098 75.1 21.6001 96.7 48.2001 96.7C55.2001 96.8 62.2001 95.4 72.4001 95.4Z" fill="#FF8C00"/>
</svg>
