<svg width="24" height="25" viewBox="0 0 24 25" fill="none" xmlns="http://www.w3.org/2000/svg">
<path d="M11.9906 16.5977C11.7907 16.5982 11.5969 16.5169 11.443 16.3679L6.3091 11.3704C6.13437 11.2008 6.02448 10.957 6.00362 10.6927C5.98276 10.4284 6.05263 10.1653 6.19787 9.96116C6.34311 9.75705 6.55181 9.62869 6.77806 9.60433C7.00432 9.57996 7.22959 9.66158 7.40433 9.83123L11.9906 14.3089L16.5768 9.99115C16.6644 9.90813 16.7651 9.84613 16.8732 9.80871C16.9813 9.7713 17.0946 9.75921 17.2068 9.77314C17.3189 9.78708 17.4275 9.82675 17.5265 9.88989C17.6254 9.95304 17.7127 10.0384 17.7833 10.1411C17.8617 10.2438 17.921 10.3644 17.9576 10.4952C17.9942 10.626 18.0073 10.7642 17.9961 10.9012C17.9848 11.0382 17.9495 11.171 17.8923 11.2913C17.835 11.4116 17.7572 11.5168 17.6635 11.6003L12.5296 16.4278C12.3713 16.5533 12.1815 16.6131 11.9906 16.5977Z" fill="white"/>
</svg>
