<svg width="113" height="32" viewBox="0 0 113 32" fill="none" xmlns="http://www.w3.org/2000/svg">
    <path fill-rule="evenodd" clip-rule="evenodd" d="M64.9699 17.9632C65.8781 17.9632 66.5985 18.3723 66.9734 18.8249H67.0307V18.1963H68.6172V25.1242C68.6172 27.9736 66.9591 29.1429 64.9985 29.1429C63.1534 29.1429 62.043 27.8865 61.6251 26.8632L63.0809 26.2491C63.3404 26.8777 63.9749 27.6234 64.9985 27.6234C66.2531 27.6234 67.0307 26.8342 67.0307 25.3573V24.8022H66.9734C66.5985 25.2703 65.8781 25.6794 64.9699 25.6794C63.0666 25.6794 61.3226 23.9984 61.3226 21.8358C61.3226 19.6577 63.0666 17.9632 64.9699 17.9632ZM4.86467 2.40471C4.91066 2.39718 4.95583 2.39887 4.99934 2.40877C5.03927 2.41554 5.07977 2.42699 5.12028 2.44342L15.8303 8.0202L20.6679 10.8408C20.6964 10.8479 20.7243 10.8579 20.7512 10.8715L25.7547 13.8066C26.0028 13.9743 26.1682 14.2258 26.1682 14.5193C26.1682 14.8129 26.0028 15.1064 25.7547 15.2322L20.8474 18.1109C20.8193 18.1352 20.7872 18.1551 20.7512 18.1673L20.7058 18.2126C20.6502 18.2663 20.6106 18.2931 20.5444 18.2931L20.5377 18.2928L15.8303 21.0605L5.12028 27.0986C5.03755 27.1405 4.99624 27.1405 4.91352 27.1405C4.83079 27.1405 4.74812 27.1405 4.70676 27.0986C4.58272 27.0147 4.5 26.8889 4.5 26.7212V2.82074C4.5 2.66887 4.56805 2.51739 4.70361 2.45888C4.75269 2.42955 4.80706 2.41143 4.86467 2.40471ZM102.602 18.1899L104.589 23.1067H104.646L106.56 18.1899H108.417L103.826 28.8843H102.084L103.783 25.0616L100.804 18.1899H102.602ZM5.32703 3.78517V25.6968L16.6929 14.5559L5.32703 3.78517ZM17.3171 15.1503L15.0033 17.4085L7.47096 24.7917L15.4168 20.3478L19.8597 17.7615L17.3171 15.1503ZM75.8393 17.9632C77.8141 17.9632 78.7805 19.5561 79.0973 20.4179L79.27 20.857L74.1812 22.9906C74.5704 23.7644 75.1762 24.159 76.0263 24.159C76.8772 24.159 77.4687 23.7354 77.9009 23.0922L79.1984 23.9694C78.7805 24.5981 77.7712 25.6794 76.0263 25.6794C73.8644 25.6794 72.2501 23.9839 72.2501 21.8213C72.2501 19.5262 73.8787 17.9632 75.8393 17.9632ZM38.5549 13.695C40.357 13.695 41.6393 14.4117 42.6057 15.3469L41.4666 16.5017C40.7749 15.844 39.8381 15.3324 38.5549 15.3324C36.1765 15.3324 34.3161 17.2755 34.3161 19.6876C34.3161 22.0989 36.1765 24.042 38.5549 24.042C40.0967 24.042 40.9763 23.4142 41.5391 22.8445C41.9999 22.3764 42.3024 21.7042 42.4178 20.7835H38.5549V19.147H43.9891C44.0473 19.4391 44.0759 19.7892 44.0759 20.1693C44.0759 21.3976 43.7439 22.9171 42.6773 23.9984C41.6393 25.0952 40.3132 25.6794 38.5549 25.6794C35.2969 25.6794 32.5578 22.9906 32.5578 19.6876C32.5578 16.3847 35.2969 13.695 38.5549 13.695ZM48.4686 17.9632C50.5732 17.9632 52.2886 19.5851 52.2886 21.8213C52.2886 24.042 50.5732 25.6794 48.4686 25.6794C46.3631 25.6794 44.6477 24.042 44.6477 21.8213C44.6477 19.5851 46.3631 17.9632 48.4686 17.9632ZM56.802 17.9632C58.9066 17.9632 60.622 19.5851 60.622 21.8213C60.622 24.042 58.9066 25.6794 56.802 25.6794C54.6974 25.6794 52.982 24.042 52.982 21.8213C52.982 19.5851 54.6974 17.9632 56.802 17.9632ZM97.2925 17.9423C99.2065 17.9423 100.688 19.0653 100.688 21.0792V25.4263H99.0768V24.5509H99.0195C98.6303 25.1496 98.0119 25.6603 96.889 25.6603C95.4215 25.6603 94.1114 24.6824 94.1114 23.1648C94.1114 21.5019 95.7382 20.612 97.3355 20.612C98.1274 20.612 98.7743 20.8742 99.0768 21.0493V20.9332C99.0625 19.9988 98.1846 19.4736 97.3211 19.4736C96.7019 19.4736 96.1123 19.6786 95.7955 20.3054L94.3137 19.6786C94.8318 18.482 96.0836 17.9423 97.2925 17.9423ZM93.1907 14.105V25.4453H91.5209V14.105H93.1907ZM86.9305 14.105C88.781 14.105 90.6002 15.463 90.6002 17.6266C90.6002 19.7901 88.781 21.1491 86.9305 21.1491H84.5986V25.4453H82.9298V14.105H86.9305ZM71.443 14.1041V25.4453H69.7706V14.1041H71.443ZM65.114 19.4826C63.9606 19.4826 62.995 20.4769 62.995 21.8358C62.995 23.1802 63.9606 24.159 65.114 24.159C66.2531 24.159 67.1461 23.1802 67.1461 21.8358C67.1461 20.4769 66.2531 19.4826 65.114 19.4826ZM48.4686 19.4826C47.3152 19.4826 46.3201 20.4324 46.3201 21.8213C46.3201 23.1947 47.3152 24.159 48.4686 24.159C49.6211 24.159 50.6161 23.1947 50.6161 21.8213C50.6161 20.4324 49.6211 19.4826 48.4686 19.4826ZM56.802 19.4826C55.6486 19.4826 54.6536 20.4324 54.6536 21.8213C54.6536 23.1947 55.6486 24.159 56.802 24.159C57.9554 24.159 58.9496 23.1947 58.9496 21.8213C58.9496 20.4324 57.9554 19.4826 56.802 19.4826ZM97.5511 21.9836C96.7315 21.9836 95.7812 22.3193 95.7812 23.1947C95.7812 23.8805 96.5435 24.1572 97.0912 24.1572C98.0549 24.1572 98.947 23.4133 99.0768 22.3628C98.6303 22.1442 98.2858 21.9836 97.5511 21.9836ZM75.8965 19.4536C75.0464 19.4536 73.8644 20.2138 73.9074 21.7042L77.3094 20.2718C77.1224 19.7892 76.5605 19.4536 75.8965 19.4536ZM86.9735 15.6835H84.5986V19.5706H86.9735C88.2217 19.5706 88.9304 18.5056 88.9304 17.6266C88.9304 16.7312 88.2217 15.6835 86.9735 15.6835ZM20.6291 11.7951L17.9353 14.5617L20.6138 17.3125L25.3412 14.5614L20.6291 11.7951ZM7.39857 4.60524L12.3361 9.27812L17.317 13.9726L18.4401 12.8191L19.8828 11.3327L15.4168 8.73304L7.39857 4.60524Z" fill="#7D2AEB"/>
    <path d="M37.9829 8.6969C37.487 9.07916 36.8775 9.27546 36.2679 9.27546C34.7905 9.27546 33.7677 8.24231 33.7677 6.73392C33.7677 5.16354 34.7802 4.19239 36.1233 4.19239C36.8465 4.19239 37.3217 4.38869 37.7556 4.67797L38.3239 3.7378C37.8486 3.30388 37.0634 3.00427 36.1233 3.00427C33.7367 3.00427 32.4246 4.6573 32.4246 6.73392C32.4246 8.98618 33.9433 10.4636 36.1543 10.4636C37.0944 10.4636 38.0139 10.133 38.4685 9.64739L37.9829 8.6969Z" fill="#7D2AEB"/>
    <path d="M39.7318 10.3499H41.0025V6.62028L43.9573 10.3499H45.569L42.4076 6.48597L45.3831 3.11792H43.854L41.0025 6.54796V3.11792H39.7318V10.3499Z" fill="#7D2AEB"/>
    <path d="M45.6828 10.3499H46.9639L47.7181 8.5006H50.8072L51.5614 10.3499H52.9149L49.8567 3.09726H48.7409L45.6828 10.3499ZM49.2679 4.73995L50.3217 7.31248H48.2037L49.2679 4.73995Z" fill="#7D2AEB"/>
    <path d="M58.1786 3.11792H56.9078V6.22768C56.5462 6.47564 56.0813 6.6926 55.5234 6.6926C54.8105 6.6926 54.2526 6.36199 54.2526 5.20487V3.11792H52.9818V5.56647C52.9818 7.29182 54.0873 7.88071 55.1824 7.88071C55.9573 7.88071 56.5669 7.63276 56.9078 7.38481V10.3499H58.1786V3.11792Z" fill="#7D2AEB"/>
    <path d="M59.253 10.3499H60.5341L61.2882 8.5006H64.3774L65.1315 10.3499H66.485L63.4269 3.09726H62.3111L59.253 10.3499ZM62.838 4.73995L63.8918 7.31248H61.7738L62.838 4.73995Z" fill="#7D2AEB"/>
    <path d="M66.0337 4.30603H68.3789V10.3499H69.6497V4.30603H71.9949V3.11792H66.0337V4.30603Z" fill="#7D2AEB"/>
    <path d="M75.0911 6.73392C75.9796 6.73392 76.5788 7.09552 76.5788 7.91171C76.5788 8.80021 76.0002 9.18248 75.0704 9.18248C74.8224 9.18248 74.5951 9.16181 74.3679 9.15148V6.78558C74.6571 6.75459 74.9051 6.73392 75.0911 6.73392ZM74.3679 3.11792H73.0971V10.3499C73.5207 10.3499 74.2335 10.3706 74.9258 10.3706C76.8474 10.3706 77.9219 9.40977 77.9219 7.88071C77.9219 6.46531 77.0644 5.54581 75.1944 5.54581C74.9981 5.54581 74.6881 5.55614 74.3679 5.59747V3.11792Z" fill="#7D2AEB"/>
    <path d="M81.5822 10.3396C82.0058 10.3706 82.9356 10.3913 83.5968 10.3913C85.1259 10.3913 86.283 9.70938 86.283 8.22165C86.283 7.26083 85.7251 6.71326 85.0122 6.53763V6.51696C85.6321 6.22768 86.0454 5.70078 86.0454 4.87426C86.0454 3.87211 85.3945 3.08692 83.6691 3.08692C82.9459 3.08692 81.9851 3.11792 81.5822 3.13858V10.3396ZM83.7518 7.24016C84.5473 7.24016 85.0122 7.55011 85.0122 8.15966C85.0122 8.84154 84.5473 9.20314 83.6898 9.20314C83.3282 9.20314 83.0286 9.17214 82.853 9.15148V7.24016H83.7518ZM83.6485 4.27504C84.3304 4.27504 84.7849 4.58498 84.7849 5.17388C84.7849 5.83509 84.2994 6.1347 83.7105 6.1347H82.853V4.30603C83.0803 4.28537 83.3592 4.27504 83.6485 4.27504Z" fill="#7D2AEB"/>
</svg>
