<svg width="113" height="32" viewBox="0 0 113 32" fill="none" xmlns="http://www.w3.org/2000/svg">
    <path fill-rule="evenodd" clip-rule="evenodd" d="M48.3104 16.4289C50.5657 16.4289 52.0524 18.2117 52.0524 20.9655C52.0524 23.727 50.5744 25.5011 48.344 25.5011C47.1911 25.5614 46.1051 24.9576 45.548 23.9464H45.5058V28.3479H43.6818V16.5219H45.4474V17.9999H45.4809C46.0628 16.9951 47.1499 16.3915 48.3104 16.4289ZM58.091 16.4289C60.3463 16.4289 61.833 18.2117 61.833 20.9655C61.833 23.727 60.355 25.5011 58.1245 25.5011C56.9716 25.5614 55.8857 24.9576 55.3286 23.9464H55.2864V28.3479H53.4623V16.5219H55.2279V17.9999H55.2614C55.8433 16.9951 56.9304 16.3915 58.091 16.4289ZM71.186 13.0166C73.7615 13.0166 75.5271 14.4611 75.5865 16.564H73.7452C73.635 15.3477 72.6295 14.6135 71.1601 14.6135C69.6908 14.6135 68.6853 15.3563 68.6853 16.4375C68.6853 17.2992 69.3275 17.8062 70.8985 18.1944L72.2413 18.5241C74.7421 19.1155 75.7811 20.1201 75.7811 21.9028C75.7811 24.1831 73.9647 25.6113 71.0758 25.6113C68.3728 25.6113 66.5478 24.2167 66.4299 22.0121L68.2971 22.0122C68.4323 23.2209 69.6064 24.0145 71.211 24.0145C72.7484 24.0145 73.8545 23.2208 73.8545 22.131C73.8545 21.185 73.1874 20.6185 71.6078 20.2303L70.0282 19.8498C67.7901 19.3092 66.751 18.2625 66.751 16.564C66.751 14.4611 68.5837 13.0166 71.186 13.0166ZM86.6007 16.4126C89.1772 16.4126 90.8162 18.1695 90.8162 20.9655C90.8162 23.7691 89.1858 25.5184 86.6007 25.5184C84.0165 25.5184 82.3862 23.7691 82.3862 20.9655C82.3862 18.1696 84.0329 16.4126 86.6007 16.4126ZM101.371 16.4126C103.83 16.4126 105.376 18.1015 105.376 20.7959V21.4208H99.0995V21.531C99.0409 22.1926 99.2694 22.8474 99.7268 23.329C100.184 23.8106 100.826 24.0725 101.49 24.048C102.375 24.131 103.21 23.6227 103.542 22.7982L105.274 22.7982C105.029 24.4113 103.458 25.5184 101.448 25.5184C98.8628 25.5184 97.2583 23.7864 97.2583 21.0077C97.2583 18.2204 98.8714 16.4126 101.371 16.4126ZM79.7177 14.4189V16.5219H81.4075V17.9664H79.7177V22.8653C79.7177 23.6263 80.056 23.981 80.7989 23.981C80.9995 23.9775 81.1997 23.9634 81.3989 23.9387V25.3746C81.0649 25.437 80.7254 25.4653 80.3857 25.4589C78.5866 25.4589 77.885 24.7832 77.885 23.0598V17.9664H76.5929V16.5219H77.885V14.4189H79.7177ZM38.1484 13.2198L42.5489 25.4082H40.5475L39.4328 22.1138H34.7869L33.6712 25.4082H31.7034L36.1039 13.2198H38.1484ZM96.2394 16.4289C96.4496 16.4282 96.6592 16.451 96.8643 16.497V18.2031C96.599 18.122 96.3221 18.0848 96.0448 18.0929C95.5085 18.0711 94.9896 18.2848 94.6241 18.6779C94.2587 19.071 94.0833 19.6041 94.1441 20.1374V25.4082H92.32V16.5219H94.0597V18.0344H94.1019C94.3445 17.0607 95.2367 16.3906 96.2394 16.4289ZM20.6193 9.20826C22.1859 9.25728 23.6376 10.0421 24.5366 11.326C23.118 12.1982 22.2451 13.7362 22.2236 15.4013C22.2257 17.2852 23.3539 18.9853 25.0889 19.7191C24.7552 20.8031 24.2522 21.8275 23.5986 22.7544L23.4162 23.0253C22.5912 24.2386 21.6996 25.3521 20.3395 25.3742C18.92 25.407 18.443 24.5389 16.8149 24.5389C15.1715 24.5389 14.6631 25.3505 13.3017 25.407C11.9104 25.4585 10.8472 24.0054 9.93743 22.7046C8.11908 20.048 6.70317 15.218 8.6014 11.9315C9.49279 10.3297 11.1594 9.31328 12.9916 9.25409C14.3841 9.22544 15.6772 10.1945 16.5334 10.1945C17.3733 10.1945 18.9711 9.03526 20.6193 9.20826ZM86.6007 17.9156C85.1227 17.9156 84.2447 19.0562 84.2447 20.9655C84.2447 22.8911 85.1227 24.0145 86.6007 24.0145C88.0787 24.0145 88.9577 22.8911 88.9577 20.9655C88.9577 19.0476 88.0787 17.9156 86.6007 17.9156ZM47.8293 17.9836C46.4356 17.9836 45.4982 19.1913 45.4982 20.9655C45.4982 22.756 46.4356 23.9551 47.8293 23.9551C49.2478 23.9551 50.1776 22.7809 50.1776 20.9655C50.1776 19.1664 49.2478 17.9836 47.8293 17.9836ZM57.6098 17.9836C56.2161 17.9836 55.2787 19.1913 55.2787 20.9655C55.2787 22.756 56.2161 23.9551 57.6098 23.9551C59.0284 23.9551 59.9581 22.7809 59.9581 20.9655C59.9581 19.1664 59.0284 17.9836 57.6098 17.9836ZM37.1353 15.2471H37.0845L35.2681 20.5936H38.9507L37.1353 15.2471ZM101.371 17.8906C100.771 17.8871 100.195 18.1233 99.7698 18.5468C99.3448 18.9703 99.1066 19.546 99.1081 20.146H103.551C103.584 19.5515 103.368 18.9702 102.954 18.5421C102.54 18.114 101.966 17.8778 101.371 17.8906ZM54.0101 5.59444L55.1181 9.10496H55.1871L56.2913 5.59444H57.2163L55.5686 10.1967C55.191 11.2721 54.7731 11.6172 53.8721 11.6172C53.7992 11.6172 53.5922 11.609 53.5107 11.5971V10.8461C53.6051 10.8581 53.7002 10.8635 53.7954 10.8624C54.1802 10.8909 54.5247 10.625 54.5947 10.2456L54.6599 10.0304L53.0602 5.59444H54.0101ZM50.5144 5.52115C51.6388 5.52112 52.349 6.39767 52.349 7.80236C52.349 9.20656 51.6388 10.087 50.5231 10.087C49.9639 10.1251 49.4333 9.83555 49.163 9.34459H49.0939V11.4835H48.2217V5.59445H49.0614V6.32486H49.1265C49.4014 5.81743 49.9375 5.50695 50.5144 5.52115ZM35.8043 4.01532C36.9574 4.01532 37.7693 4.66086 37.7693 5.59013C37.7748 6.23166 37.3315 6.78988 36.7053 6.92964V6.99865C37.4552 7.03192 38.0373 7.66479 38.0079 8.41484C37.9541 8.93808 37.6918 9.41758 37.2803 9.74517C36.8687 10.0728 36.3426 10.2208 35.8206 10.156C35.2974 10.2273 34.7677 10.083 34.353 9.75629C33.9382 9.42954 33.674 8.94833 33.6209 8.423H34.4941C34.5468 8.98324 35.0615 9.34463 35.8206 9.34463C36.5797 9.34463 37.0753 8.93871 37.0753 8.36648C37.0753 7.78611 36.6085 7.42858 35.7928 7.42858H34.9848V6.63347H35.7679C36.0404 6.6674 36.3147 6.58585 36.5245 6.40853C36.7342 6.23121 36.8602 5.97427 36.8721 5.69989C36.8721 5.15977 36.4657 4.81088 35.7765 4.81088C35.4975 4.77189 35.2146 4.84734 34.992 5.02008C34.7694 5.19282 34.6261 5.44819 34.5947 5.72816H33.7349C33.7648 5.21966 34.0046 4.74643 34.397 4.42164C34.7894 4.09684 35.2992 3.94967 35.8043 4.01532ZM74.165 5.50913C75.3948 5.50913 76.1376 6.3493 76.1376 7.73715V8.04151H73.0167V8.09039C72.9888 8.41843 73.1007 8.74302 73.3248 8.98415C73.549 9.22527 73.8646 9.36052 74.1938 9.35654C74.6202 9.40753 75.0352 9.19586 75.2443 8.82073L76.0849 8.82076C75.8396 9.65435 75.0327 10.1928 74.1688 10.0994C73.5795 10.115 73.0131 9.87068 72.62 9.43138C72.2268 8.99208 72.0466 8.40217 72.1272 7.81816C72.0488 7.23254 72.2283 6.64168 72.6192 6.19868C73.0102 5.75567 73.5742 5.50409 74.165 5.50913ZM59.7141 5.50917C60.7647 5.50917 61.3657 5.98411 61.3657 6.73078C61.3758 7.15928 61.0849 7.53649 60.6679 7.63561V7.70462C61.1665 7.76894 61.5381 8.19632 61.5324 8.69906C61.5324 9.53923 60.8174 10.0951 59.7256 10.0951C58.7604 10.0951 57.9764 9.65275 57.8959 8.7599H58.7643C58.8496 9.14956 59.2148 9.35273 59.7256 9.35273C60.3065 9.35273 60.6631 9.09681 60.6631 8.69904C60.6631 8.27299 60.3429 8.06979 59.7256 8.06979H59.0643V7.39213H59.7141C60.2413 7.39213 60.5097 7.18941 60.5097 6.81991C60.5097 6.49546 60.25 6.24769 59.7141 6.24769C59.2263 6.24769 58.8697 6.45473 58.8131 6.80363H57.9726C58.1033 5.96961 58.8778 5.39391 59.7141 5.50917ZM40.9773 5.50915C42.0854 5.50915 42.7103 6.06076 42.7103 6.99435V10.0141H41.8697V9.393H41.8007C41.5155 9.84658 41.0084 10.1117 40.4732 10.0869C40.098 10.126 39.7238 10.0044 39.4431 9.75243C39.1624 9.50042 39.0014 9.14143 39 8.76422C39 7.96866 39.5933 7.51002 40.6438 7.44484L41.841 7.37583V6.99435C41.841 6.52755 41.5333 6.26397 40.9361 6.26397C40.4492 6.26397 40.1128 6.44273 40.015 6.7552H39.1706C39.2597 5.99607 39.9748 5.50915 40.9773 5.50915ZM47.0629 5.59444V6.32861L45.0251 6.32866V10.0141H44.1529V5.59444H47.0629ZM63.6531 5.59444V8.63434H63.7221L65.7589 5.59444H66.6235V10.0141H65.7589V6.95793H65.6938L63.6531 10.0141H62.7885V5.59444H63.6531ZM81.7755 5.59444C82.6401 5.59444 83.1471 6.03248 83.1471 6.71827C83.1499 7.16673 82.8386 7.556 82.4005 7.65185V7.72086C82.9365 7.75472 83.352 8.20267 83.3455 8.73975C83.3455 9.51086 82.7656 10.0141 81.7956 10.0141H79.7828V5.59444H81.7755ZM71.3863 5.59449V6.32866H69.9945V10.0141H69.1213V6.32866H67.7296V5.59449H71.3863ZM41.841 8.01707L40.7616 8.08607C40.153 8.12681 39.8769 8.33385 39.8769 8.72347C39.8769 9.12125 40.222 9.35273 40.6965 9.35273C40.9774 9.38117 41.2578 9.2944 41.4736 9.11227C41.6893 8.93014 41.8219 8.66825 41.841 8.38656V8.01707ZM81.5723 8.04965H80.6474V9.34459H81.6816C82.1973 9.34459 82.4733 9.11695 82.4733 8.69904C82.4733 8.2567 82.1609 8.04965 81.5723 8.04965ZM50.271 6.3047C49.5368 6.3047 49.0777 6.88076 49.0777 7.8062C49.0777 8.72732 49.5368 9.30386 50.2672 9.30386C51.01 9.30386 51.4519 8.73977 51.4519 7.80236C51.4519 6.86878 51.01 6.3047 50.271 6.3047ZM20.6364 4.03507C20.7315 5.27592 20.3391 6.50494 19.5425 7.46113C18.7698 8.42228 17.5988 8.97591 16.3656 8.96321C16.2872 7.75808 16.691 6.5712 17.4882 5.66398C18.2955 4.74448 19.4195 4.16288 20.6364 4.03507ZM81.6087 6.26395H80.6474V7.40839H81.5119C82.0391 7.40839 82.2912 7.20567 82.2912 6.83186C82.2912 6.48728 82.0717 6.26395 81.6087 6.26395ZM74.1612 6.2515C73.8563 6.24735 73.5627 6.36666 73.3472 6.5823C73.1316 6.79794 73.0124 7.09157 73.0167 7.39643H75.2481C75.2704 7.09664 75.1651 6.80137 74.9581 6.58335C74.7511 6.36532 74.4617 6.24482 74.1612 6.2515Z" fill="#7D2AEB"/>
</svg>
