<svg width="168" height="40" viewBox="0 0 168 40" fill="none" xmlns="http://www.w3.org/2000/svg">
<g clip-path="url(#clip0_2331_40262)">
<path d="M103.913 14.8385C99.1249 14.7962 95.5554 18.2897 95.5469 23.0308C95.5384 27.772 99.0443 31.2189 103.815 31.2528C108.586 31.2866 112.168 27.8312 112.198 23.0985C112.227 18.3658 108.772 14.885 103.913 14.8385ZM103.828 27.7508C101.166 27.7508 99.3117 25.7926 99.3159 23.0308C99.3202 20.2691 101.222 18.2939 103.9 18.3066C106.578 18.3193 108.437 20.2691 108.429 23.0731C108.42 25.8772 106.548 27.772 103.828 27.7508Z" fill="white"/>
<path d="M147.011 23.2467C149.558 20.891 150.177 17.9389 148.989 14.7203C147.868 11.6751 145.487 10.1948 142.296 10.068C137.737 9.87764 134.32 12.9439 134.257 17.2579C134.231 19.1527 134.813 20.7852 136.319 22.0075C136.762 22.4141 137.387 22.557 137.963 22.3831C138.539 22.2092 138.979 21.7445 139.121 21.1617C139.299 20.4427 138.968 19.8675 138.59 19.2965C137.681 18.0727 137.649 16.4097 138.51 15.1517C139.486 13.6376 141.035 13.3627 142.699 13.6249C144.151 13.7875 145.331 14.8662 145.619 16.2936C146.127 17.9536 145.614 19.7564 144.307 20.9037C143.849 21.3266 143.352 21.7157 142.852 22.0963C140.415 23.9657 137.976 25.8337 135.534 27.7003C134.808 28.2586 134.583 28.8845 134.808 29.6162C135.047 30.4044 135.761 30.9548 136.587 30.9865C136.718 30.9865 136.846 30.9865 136.977 30.9865H147.317C147.51 30.9992 147.704 30.9992 147.898 30.9865C148.814 30.9137 149.52 30.1513 149.519 29.2356C149.538 28.7868 149.376 28.3491 149.071 28.0191C148.765 27.6891 148.34 27.4937 147.89 27.4761C147.134 27.4169 146.374 27.4423 145.615 27.4381H141.795L141.744 27.3027C142.003 27.1124 142.262 26.9263 142.516 26.7318C144.002 25.5771 145.619 24.5325 147.011 23.2467Z" fill="white"/>
<path d="M60.9219 15.5153C58.6289 14.5737 56.0528 14.5874 53.7701 15.5533C48.558 17.5919 47.5733 24.858 51.0324 28.6391C53.7616 31.6292 59.1265 32.3144 61.5415 29.21C61.588 29.2839 61.6277 29.3618 61.6604 29.4426C62.0296 30.61 62.7512 31.1344 63.7826 30.9864C64.814 30.8383 65.3657 30.094 65.37 28.9393C65.37 26.5667 65.4336 24.1897 65.3445 21.8171C65.2214 18.8015 63.7104 16.6699 60.9219 15.5153ZM61.4906 24.3674C61.0662 26.5709 59.5976 27.7509 57.3608 27.7509C55.0604 27.7509 53.2607 26.4186 52.9085 24.2997C52.7576 23.411 52.7706 22.5023 52.9467 21.6183C53.4475 19.309 55.5485 18.0191 58.0909 18.3363C60.5356 18.6366 61.6179 20.0069 61.6519 22.8067C61.601 23.3185 61.5882 23.8387 61.4906 24.3674Z" fill="white"/>
<path d="M166.042 22.5615C165.236 22.5615 164.429 22.6926 163.585 22.7645V21.5549C163.585 20.0281 163.093 19.3979 161.887 19.3979C160.682 19.3979 160.168 20.0323 160.168 21.5126V22.8491L156.624 22.4727C156.739 22.2824 156.841 22.1005 156.955 21.9229C158.823 19.0694 160.69 16.2146 162.558 13.3583C162.732 13.1117 162.884 12.8498 163.012 12.5759C163.231 12.0968 163.229 11.5462 163.006 11.0687C162.783 10.5913 162.362 10.2349 161.853 10.0932C161.004 9.81411 160.121 10.1651 159.544 11.0998C157.082 15.0839 154.621 19.0722 152.193 23.0775C151.229 24.6593 152.044 26.038 153.891 26.0677C155.431 26.0677 156.968 26.0677 158.509 26.0677C159.655 26.0677 160.007 26.4272 160.045 27.5818C160.066 28.2289 160.045 28.8802 160.079 29.5273C160.164 30.5466 160.877 31.1218 161.938 31.0964C162.401 31.1238 162.855 30.9563 163.188 30.6347C163.521 30.313 163.704 29.8668 163.691 29.4046C163.712 28.7998 163.691 28.195 163.712 27.5902C163.776 26.3891 164.115 26.0761 165.312 26.0592H166.03C167.269 26.0338 167.978 25.391 167.974 24.2913C167.969 23.1917 167.273 22.5446 166.042 22.5615Z" fill="white"/>
<path d="M123.353 14.847C118.96 14.6397 115.386 17.6595 115.221 21.9904C115.068 26.0252 115.161 30.0685 115.182 34.1076C115.173 34.5804 115.356 35.0369 115.689 35.3737C116.022 35.7104 116.478 35.899 116.952 35.8966C117.909 35.9665 118.751 35.2728 118.862 34.3233C118.911 33.9603 118.933 33.5941 118.926 33.2279C118.926 31.8999 118.926 30.5676 118.926 29.2946C119.638 29.8401 120.395 30.3253 121.188 30.7452C122.87 31.4446 124.76 31.4628 126.456 30.796C131.842 28.8843 132.78 21.8297 129.995 18.0782C128.344 15.862 126.04 14.9781 123.353 14.847ZM127.495 24.693C126.99 26.6596 125.433 27.7889 123.395 27.8058C121.358 27.8227 119.694 26.7358 119.151 24.9383C119.014 24.3547 118.916 23.7627 118.858 23.1662H118.917C118.939 22.8024 118.917 22.4303 118.99 22.0708C119.355 19.6262 120.891 18.2643 123.234 18.3193C125.577 18.3743 127.449 19.9138 127.665 22.2526C127.749 23.0698 127.691 23.8952 127.495 24.693Z" fill="white"/>
<path d="M92.7764 14.8344H83.3793C82.3721 14.882 81.5801 15.7096 81.5801 16.7144C81.5801 17.7191 82.3721 18.5467 83.3793 18.5943H86.3249V29.3539C86.3727 30.3575 87.2032 31.1468 88.2115 31.1468C89.2199 31.1468 90.0504 30.3575 90.0982 29.3539V18.5943H92.7764C93.4718 18.6272 94.1289 18.2762 94.4865 17.681C94.844 17.0858 94.844 16.3429 94.4865 15.7477C94.1289 15.1525 93.4718 14.8015 92.7764 14.8344Z" fill="white"/>
<path d="M79.9779 23.8218C79.0604 23.0543 77.9284 22.5862 76.7352 22.481H76.7055L76.7352 22.4514C77.754 22.3131 78.7069 21.8708 79.4686 21.1826C80.1233 20.5746 80.4889 19.7186 80.4745 18.8269C80.4745 16.1623 78.0241 14.8301 73.1232 14.8301C72.0961 14.8301 70.9841 14.8808 69.7871 14.9823C69.2975 15.0089 68.8389 15.2297 68.5138 15.5956C68.1909 15.9573 68.0166 16.4269 68.0257 16.9109V29.1762C68.0203 29.6578 68.196 30.124 68.5181 30.4831C68.8259 30.8527 69.2723 31.0804 69.7532 31.1132C71.052 31.219 72.2531 31.2697 73.3652 31.2697C78.5575 31.2697 81.1522 29.6597 81.1494 26.4398C81.1674 25.4372 80.7384 24.4784 79.9779 23.8218ZM72.1046 17.8372C72.0939 17.6862 72.2008 17.5522 72.3508 17.5284C72.8473 17.4861 73.1996 17.465 73.4628 17.465C75.585 17.465 76.6461 18.0811 76.6461 19.3132C76.654 19.9392 76.3144 20.5184 75.7632 20.8189C75.0338 21.2252 74.2039 21.4173 73.3694 21.3729H72.3847C72.198 21.3729 72.1046 21.2926 72.1046 21.1276V17.8372ZM73.5434 28.5967C73.152 28.6042 72.7606 28.5844 72.372 28.5375C72.1852 28.4952 72.0918 28.3937 72.0918 28.2288V24.1432C72.0918 23.9782 72.1852 23.8979 72.372 23.8979H73.45C75.9627 23.8979 77.2191 24.6465 77.2191 26.1437C77.2275 27.7791 76.0023 28.5967 73.5434 28.5967Z" fill="white"/>
<mask id="mask0_2331_40262" style="mask-type:alpha" maskUnits="userSpaceOnUse" x="0" y="0" width="45" height="40">
<path d="M12.2829 1.31267C19.7006 -1.56811 28.1325 0.38884 33.5094 6.23916C33.5039 6.24072 33.4984 6.24229 33.4928 6.24386L33.5307 6.28568L33.6622 6.42525C33.7344 6.50138 33.7981 6.58174 33.866 6.65787C35.65 8.72533 36.9814 11.1411 37.775 13.7506C38.2571 15.3654 38.5254 17.036 38.573 18.7201V18.7624C38.5772 18.9485 38.5815 19.1261 38.5093 19.2995V20.5049C38.5087 20.5055 38.5081 20.5061 38.5075 20.5067L38.5815 20.5218V33.7471C38.5803 35.2719 39.1877 36.7345 40.2697 37.8126C41.3516 38.8908 42.8194 39.496 44.3496 39.4949H19.2738C13.0026 39.4988 7.1212 36.4636 3.50592 31.3575C3.58288 31.3619 3.65984 31.3661 3.73681 31.3701L3.67702 31.3596L3.60778 31.3533H3.50592C2.5011 29.9731 1.7099 28.4505 1.15878 26.8363C1.16047 26.8222 1.16047 26.808 1.15878 26.794L0.988199 26.3051C0.332654 24.3417 -0.00136928 22.2846 3.00788e-05 20.2131V19.253C-0.0139769 11.3199 4.86515 4.19346 12.2829 1.31267ZM25.3525 12.3802C22.4276 9.99505 18.3865 9.4628 14.9303 11.031C11.378 12.6428 9.09968 16.1756 9.10425 20.065V20.5599C9.10321 21.9797 9.40864 23.3832 9.99982 24.6751C9.99466 24.6771 9.98951 24.679 9.98435 24.681L10.0041 24.6751L10.1388 24.9526C11.3881 27.4271 13.6185 29.2763 16.2985 30.0464L16.2178 30.0633C16.1943 30.0697 16.1711 30.0763 16.1483 30.0831L16.2985 30.0464C17.1907 30.2968 18.1134 30.4235 19.0403 30.4228H29.0019L29.0014 23.9737L28.9425 23.918V19.9847C28.9434 19.5818 28.9193 19.1792 28.8703 18.7793C28.8618 18.7032 28.8534 18.6609 28.8364 18.5467C28.8194 18.4325 28.7812 18.3225 28.7812 18.2083C28.7303 17.9292 28.6666 17.6501 28.586 17.3625L28.5677 17.284C28.5567 17.2323 28.5463 17.1806 28.5265 17.1214C28.4968 17.0326 28.4629 16.9522 28.4332 16.8676V16.8211C28.3228 16.5039 28.204 16.2036 28.0724 15.9202L28.0299 15.8314C27.9026 15.565 27.771 15.3112 27.631 15.0744C27.6013 15.0278 27.58 14.9813 27.5503 14.939L27.3636 14.643L27.1471 14.3258L27.024 14.1566C26.6796 13.6923 26.2947 13.2592 25.8738 12.8624L25.738 12.7355L25.5682 12.579L25.5604 12.5541L25.3525 12.3802Z" fill="white"/>
</mask>
<g mask="url(#mask0_2331_40262)">
<path d="M12.2829 1.31267C19.7006 -1.56811 28.1325 0.38884 33.5094 6.23916C33.5039 6.24072 33.4984 6.24229 33.4928 6.24386L33.5307 6.28568L33.6622 6.42525C33.7344 6.50138 33.7981 6.58174 33.866 6.65787C35.65 8.72533 36.9814 11.1411 37.775 13.7506C38.2571 15.3654 38.5254 17.036 38.573 18.7201V18.7624C38.5772 18.9485 38.5815 19.1261 38.5093 19.2995V20.5049C38.5087 20.5055 38.5081 20.5061 38.5075 20.5067L38.5815 20.5218V33.7471C38.5803 35.2719 39.1877 36.7345 40.2697 37.8126C41.3516 38.8908 42.8194 39.496 44.3496 39.4949H19.2738C13.0026 39.4988 7.1212 36.4636 3.50592 31.3575C3.58288 31.3619 3.65984 31.3661 3.73681 31.3701L3.67702 31.3596L3.60778 31.3533H3.50592C2.5011 29.9731 1.7099 28.4505 1.15878 26.8363C1.16047 26.8222 1.16047 26.808 1.15878 26.794L0.988199 26.3051C0.332654 24.3417 -0.00136928 22.2846 3.00788e-05 20.2131V19.253C-0.0139769 11.3199 4.86515 4.19346 12.2829 1.31267ZM25.3525 12.3802C22.4276 9.99505 18.3865 9.4628 14.9303 11.031C11.378 12.6428 9.09968 16.1756 9.10425 20.065V20.5599C9.10321 21.9797 9.40864 23.3832 9.99982 24.6751C9.99466 24.6771 9.98951 24.679 9.98435 24.681L10.0041 24.6751L10.1388 24.9526C11.3881 27.4271 13.6185 29.2763 16.2985 30.0464L16.2178 30.0633C16.1943 30.0697 16.1711 30.0763 16.1483 30.0831L16.2985 30.0464C17.1907 30.2968 18.1134 30.4235 19.0403 30.4228H29.0019L29.0014 23.9737L28.9425 23.918V19.9847C28.9434 19.5818 28.9193 19.1792 28.8703 18.7793C28.8618 18.7032 28.8534 18.6609 28.8364 18.5467C28.8194 18.4325 28.7812 18.3225 28.7812 18.2083C28.7303 17.9292 28.6666 17.6501 28.586 17.3625L28.5677 17.284C28.5567 17.2323 28.5463 17.1806 28.5265 17.1214C28.4968 17.0326 28.4629 16.9522 28.4332 16.8676V16.8211C28.3228 16.5039 28.204 16.2036 28.0724 15.9202L28.0299 15.8314C27.9026 15.565 27.771 15.3112 27.631 15.0744C27.6013 15.0278 27.58 14.9813 27.5503 14.939L27.3636 14.643L27.1471 14.3258L27.024 14.1566C26.6796 13.6923 26.2947 13.2592 25.8738 12.8624L25.738 12.7355L25.5682 12.579L25.5604 12.5541L25.3525 12.3802Z" fill="#FFD304"/>
<path d="M39.0468 20.162C35.8677 19.4388 32.1334 21.2363 28.496 23.5751C20.6219 27.8164 16.3874 29.8535 15.7926 29.6866C11.6262 30.8028 7.30712 31.2455 3 30.9977C6.61528 36.1038 12.4967 43.0415 18.7679 43.0375L43.8437 39.1351C42.3135 39.1362 41.8169 38.531 40.735 37.4528C39.653 36.3747 39.0456 34.9121 39.0468 33.3873V20.162Z" fill="#FFD304"/>
<path d="M9.99982 24.6751C9.40864 23.3832 9.10321 21.9797 9.10426 20.5599V20.065C9.09968 16.1756 11.378 12.6428 14.9303 11.031C18.4825 9.41924 22.6525 10.0262 25.5937 12.5832C27.2589 9.48569 30.1162 7.19572 33.5094 6.23916C28.1325 0.38884 19.7007 -1.56811 12.2829 1.31267C4.86515 4.19346 -0.0139769 11.3199 3.00788e-05 19.253V20.2131C-0.00148589 22.4572 0.390654 24.6844 1.15878 26.794C2.60289 26.6425 4.03606 26.401 5.44984 26.0708C6.99694 25.7105 8.51721 25.2441 9.99982 24.6751Z" fill="#FFD304"/>
</g>
</g>
<defs>
<clipPath id="clip0_2331_40262">
<rect width="168" height="40" fill="white"/>
</clipPath>
</defs>
</svg>
